<?xml version="1.0" encoding="iso-8859-1"?>
<!-- Uploaded to: SVG Repo, www.svgrepo.com, Generator: SVG Repo Mixer Tools -->
<svg height="800px" width="800px" version="1.1" id="Layer_1" xmlns="http://www.w3.org/2000/svg" xmlns:xlink="http://www.w3.org/1999/xlink"
     viewBox="0 0 511.999 511.999" xml:space="preserve">
<path style="fill:#FFD700;" d="M244.105,19.376c2.193-4.578,6.819-7.492,11.895-7.492c5.077,0,9.702,2.914,11.895,7.492
	l70.615,147.437l162.042,21.599c5.032,0.67,9.232,4.17,10.801,8.998c1.569,4.828,0.227,10.128-3.45,13.629L389.507,323.758
	l29.532,160.785c0.917,4.993-1.113,10.069-5.22,13.053s-9.563,3.346-14.028,0.931l-143.79-77.772l-143.79,77.772
	c-4.465,2.415-9.92,2.053-14.028-0.931c-4.107-2.984-6.137-8.06-5.22-13.053l29.532-160.786l-118.4-112.72
	c-3.677-3.501-5.019-8.801-3.45-13.629s5.769-8.328,10.801-8.998l162.042-21.599L244.105,19.376z"/>
    <g>
	<path style="fill:#FFC107;" d="M256.001,11.884c-5.077,0-9.702,2.914-11.895,7.492l-70.615,147.437l82.511,111.445V11.884z"/>
        <path style="fill:#FFC107;" d="M511.313,197.294c-1.598-4.768-5.768-8.217-10.759-8.882l-162.043-21.599L256,278.258
		L511.313,197.294z"/>
        <path style="fill:#FFC107;" d="M413.877,497.55c4.066-2.99,6.073-8.038,5.161-13.007l-29.532-160.785L256,278.258L413.877,497.55z"
        />
</g>
    <g>
	<path style="fill:#FFA000;" d="M0.689,197.294c-0.013,0.039-0.03,0.076-0.042,0.116c-1.569,4.828-0.228,10.128,3.45,13.629
		l118.399,112.719l133.505-45.499L0.689,197.294z"/>
        <path style="fill:#FFA000;" d="M98.124,497.55c0.02,0.014,0.039,0.032,0.059,0.046c4.107,2.984,9.563,3.346,14.028,0.931
		l143.79-77.772V278.258L98.124,497.55z"/>
</g>
</svg>